<!-- <svg width="33" height="30" viewBox="0 0 33 30" fill="none" xmlns="http://www.w3.org/2000/svg">
<path d="M32.0988 28.6014C32.1313 28.9985 31.8211 29.339 31.4268 29.339H1.59438C1.2009 29.339 0.890922 29.0002 0.922082 28.6037L3.06376 1.34718C3.09168 0.992702 3.38426 0.719727 3.73606 0.719727H29.1958C29.5468 0.719727 29.8391 0.991612 29.868 1.34499L32.0988 28.6014Z" fill="url(#paint0_linear_150_1237)"/>
<defs>
<linearGradient id="paint0_linear_150_1237" x1="25.8733" y1="25.3337" x2="7.51325" y2="3.9008" gradientUnits="userSpaceOnUse">
<stop stop-color="#52D67A"/>
<stop offset="1" stop-color="#5AEE87"/>
</linearGradient>
</defs>
</svg> -->

  <svg width="33" height="30" viewBox="0 0 33 30" fill="none" xmlns="http://www.w3.org/2000/svg">
            <path d="M32.0988 28.6014C32.1313 28.9985 31.8211 29.339 31.4268 29.339H1.59438C1.2009 29.339 0.890922 29.0002 0.922082 28.6037L3.06376 1.34718C3.09168 0.992702 3.38426 0.719727 3.73606 0.719727H29.1958C29.5468 0.719727 29.8391 0.991612 29.868 1.34499L32.0988 28.6014Z" fill="url(#paint0_linear_0_1)"/>
            <path d="M15.9232 20.6953C12.0402 20.6953 8.88135 16.8631 8.88135 12.1528C8.88135 11.9075 9.07815 11.7085 9.32109 11.7085C9.56403 11.7085 9.76084 11.9073 9.76084 12.1528C9.76084 16.3732 12.5253 19.8067 15.9234 19.8067C19.3214 19.8067 22.0859 16.3732 22.0859 12.1528C22.0859 11.9075 22.2827 11.7085 22.5257 11.7085C22.7686 11.7085 22.9654 11.9073 22.9654 12.1528C22.9653 16.8631 19.8062 20.6953 15.9232 20.6953Z" fill="white"/>
            <defs>
            <linearGradient id="paint0_linear_0_1" x1="25.8733" y1="25.3337" x2="7.51325" y2="3.9008" gradientUnits="userSpaceOnUse">
            <stop stop-color="#52D67A"/>
            <stop offset="1" stop-color="#5AEE87"/>
            </linearGradient>
            </defs>
            </svg>
